<svg xmlns="http://www.w3.org/2000/svg" xmlns:xlink="http://www.w3.org/1999/xlink" width="2000" zoomAndPan="magnify" viewBox="0 0 1500 1499.999933" height="2000" preserveAspectRatio="xMidYMid meet" version="1.0"><defs><g/><clipPath id="78de98ad85"><path d="M 561 502 L 778 502 L 778 732.398438 L 561 732.398438 Z M 561 502 " clip-rule="nonzero"/></clipPath><clipPath id="7af5ba6883"><path d="M 672 415.898438 L 837.878906 415.898438 L 837.878906 732 L 672 732 Z M 672 415.898438 " clip-rule="nonzero"/></clipPath><clipPath id="718fd9560c"><rect x="0" width="740" y="0" height="227"/></clipPath><clipPath id="a81456c17e"><rect x="0" width="456" y="0" height="71"/></clipPath></defs><g clip-path="url(#78de98ad85)"><path fill="#39a848" d="M 766.578125 616.492188 C 784.675781 649.101562 779.808594 677.097656 751.726562 700.574219 C 741.992188 708.765625 730.386719 715.59375 716.898438 721.058594 C 702.386719 726.949219 678.402344 730.703125 662.78125 732.328125 L 662.78125 684.695312 C 681.730469 682.816406 722.789062 672.234375 710.070312 649.355469 C 706.910156 643.722656 700.9375 640.394531 691.972656 639.371094 C 685.316406 638.601562 675.242188 639.199219 661.585938 641.160156 C 644.941406 643.382812 634.441406 644.574219 629.832031 644.660156 C 622.660156 644.917969 616.171875 644.40625 610.367188 643.210938 C 593.636719 639.625 580.492188 629.210938 570.933594 612.140625 C 561.03125 594.214844 558.980469 576.886719 564.957031 560.070312 C 571.785156 540.351562 587.320312 525.5 611.648438 515.683594 C 628.976562 508.683594 647.585938 504.414062 667.476562 502.878906 L 667.476562 549.058594 C 659.109375 549.398438 651.425781 551.023438 644.425781 553.839844 C 638.109375 556.398438 633.332031 560.070312 629.832031 564.765625 C 625.90625 570.226562 625.476562 575.433594 628.292969 580.640625 C 631.113281 585.761719 637.257812 588.578125 646.648438 589.347656 C 650.828125 589.691406 662.4375 588.578125 681.21875 586.019531 C 704.863281 582.859375 723.726562 584.140625 737.8125 590.117188 C 749.933594 594.898438 759.492188 603.773438 766.578125 616.492188 Z M 766.578125 616.492188 " fill-opacity="1" fill-rule="evenodd"/></g><g clip-path="url(#7af5ba6883)"><path fill="#39a848" d="M 732.09375 540.09375 L 704.691406 446.882812 L 704.691406 548.546875 L 672.851562 548.546875 L 672.851562 432.199219 C 672.851562 425.796875 674.816406 421.53125 678.65625 419.226562 C 682.582031 417.007812 687.789062 415.898438 694.449219 415.898438 L 705.203125 415.898438 C 711.691406 415.898438 716.300781 416.410156 719.289062 417.433594 C 722.191406 418.457031 724.324219 420.25 725.777344 422.8125 C 727.140625 425.371094 728.761719 429.640625 730.554688 435.445312 L 755.394531 515.597656 L 780.320312 435.445312 C 782.113281 429.554688 783.734375 425.371094 785.101562 422.8125 C 786.464844 420.25 788.6875 418.457031 791.589844 417.433594 C 794.492188 416.410156 799.183594 415.898438 805.671875 415.898438 L 816.429688 415.898438 C 823.085938 415.898438 828.292969 417.007812 832.21875 419.226562 C 836.0625 421.445312 838.023438 425.796875 838.023438 432.199219 L 838.023438 731.984375 L 806.097656 731.984375 L 806.097656 446.882812 L 778.699219 540.09375 C 777.675781 543.425781 776.820312 546.242188 776.054688 548.632812 L 734.910156 548.632812 Z M 732.09375 540.09375 " fill-opacity="1" fill-rule="nonzero"/></g><path fill="#414042" d="M 888.398438 564.769531 C 888.367188 564.542969 887.984375 564.238281 887.75 564.261719 C 880.382812 564.988281 874.097656 570 870.691406 576.429688 C 867.023438 583.457031 866.644531 591.570312 864.863281 599.179688 C 864.230469 602.421875 863.625 605.671875 863 608.914062 C 862.875 609.566406 862.585938 609.832031 861.980469 609.859375 C 814.214844 610.121094 766.453125 609.925781 718.6875 609.976562 C 718.6875 609.976562 718.6875 609.976562 718.6875 609.980469 C 672.097656 609.96875 625.503906 609.957031 578.917969 610.023438 C 569.757812 609.21875 561.234375 615.898438 559.730469 624.953125 C 558.933594 628.539062 559.574219 632.140625 560.683594 635.574219 C 574.144531 678.066406 587.0625 720.734375 600.652344 763.183594 C 603.886719 772.789062 613.628906 778.554688 623.558594 778.140625 C 633.039062 778.410156 642.488281 779.164062 651.957031 779.59375 C 675.941406 780.945312 699.941406 782.117188 723.925781 783.429688 C 748.726562 784.699219 773.523438 786.042969 798.324219 787.355469 C 806.023438 787.777344 813.746094 788.007812 821.441406 788.519531 C 826.464844 788.484375 831.675781 789.605469 836.535156 787.90625 C 839.070312 786.777344 838.800781 787.675781 840.957031 789.066406 C 848.460938 794.316406 856.605469 798.808594 863.78125 804.445312 C 864.511719 805.257812 864.539062 806.335938 864.425781 807.363281 C 864.242188 809.664062 861.917969 810.0625 860.035156 809.914062 C 771.261719 809.992188 682.492188 809.949219 593.71875 809.9375 C 587.097656 809.71875 582.246094 816.316406 584.1875 821.929688 C 585.296875 826.914062 590.6875 829.433594 595.742188 829.066406 C 668.710938 829.480469 741.6875 829.0625 814.660156 829.191406 C 830.238281 829.203125 845.816406 829.28125 861.398438 829.246094 C 875.117188 830.027344 886.617188 817.230469 884.207031 803.664062 C 882.746094 793.304688 874.796875 788.035156 866.503906 783.109375 C 861.554688 779.945312 856.507812 776.925781 851.585938 773.722656 C 851.34375 773.53125 851.21875 773.246094 851.289062 772.941406 C 859.519531 729.742188 867.320312 686.4375 875.625 643.242188 C 878.257812 629.613281 880.824219 615.96875 883.414062 602.332031 C 885.144531 594.847656 884.851562 585.875 891.765625 581 C 893.324219 579.777344 893.15625 580 892.332031 578.425781 C 889.988281 574.179688 888.625 569.605469 888.398438 564.769531 Z M 779.726562 629.28125 C 784.648438 629.257812 789.566406 629.25 794.488281 629.25 C 794.488281 629.246094 794.488281 629.238281 794.488281 629.234375 C 799.699219 629.269531 804.917969 629.144531 810.125 629.296875 C 810.636719 629.320312 810.957031 629.6875 810.90625 630.152344 C 810.246094 635.839844 809.511719 641.515625 808.800781 647.195312 C 808.363281 650.464844 808.136719 653.769531 807.558594 657.023438 C 807.449219 657.742188 806.738281 657.757812 806.171875 657.757812 C 796.40625 657.707031 786.636719 657.816406 776.875 657.671875 C 776.402344 657.636719 776.101562 657.296875 776.117188 656.78125 C 776.480469 648.050781 777.066406 639.332031 777.515625 630.609375 C 777.421875 629.105469 778.664062 629.347656 779.726562 629.28125 Z M 652.742188 629.3125 C 657.945312 629.128906 663.160156 629.304688 668.367188 629.246094 C 668.367188 629.25 668.367188 629.25 668.367188 629.257812 C 673.648438 629.308594 678.933594 629.140625 684.207031 629.347656 C 684.679688 629.394531 684.871094 629.933594 684.890625 630.339844 C 685.054688 632.53125 685.214844 634.730469 685.378906 636.921875 C 685.851562 643.136719 686.335938 649.351562 686.773438 655.574219 C 686.726562 656.253906 687.085938 657.457031 686.230469 657.71875 C 676.335938 657.859375 666.421875 657.824219 656.527344 657.730469 C 656.265625 657.707031 655.980469 657.449219 655.925781 657.175781 C 654.445312 648.804688 653.707031 640.308594 652.371094 631.910156 C 652.398438 631.121094 651.765625 629.671875 652.742188 629.3125 Z M 648.339844 667.757812 C 648.753906 670.738281 649.164062 673.722656 649.589844 676.695312 C 650.28125 682.074219 651.363281 687.421875 651.875 692.820312 C 651.734375 693.652344 650.609375 693.386719 649.984375 693.449219 C 641.621094 693.378906 633.242188 693.613281 624.882812 693.410156 C 624.277344 693.273438 624.175781 692.515625 624.023438 692.003906 C 623.3125 689.152344 622.597656 686.308594 621.914062 683.457031 C 620.613281 678.035156 619.332031 672.609375 618.039062 667.179688 C 617.933594 666.738281 618.140625 666.441406 618.5625 666.429688 C 623.40625 666.421875 628.257812 666.421875 633.101562 666.421875 C 633.101562 666.429688 633.101562 666.429688 633.101562 666.433594 C 637.945312 666.492188 642.796875 666.300781 647.636719 666.527344 C 648.195312 666.613281 648.296875 667.289062 648.339844 667.757812 Z M 610.882812 629.285156 C 616.019531 629.234375 621.164062 629.222656 626.296875 629.226562 C 626.296875 629.246094 626.296875 629.257812 626.296875 629.273438 C 631.21875 629.273438 636.132812 629.273438 641.054688 629.273438 C 643.175781 629.273438 643.066406 629.273438 643.367188 631.289062 C 643.699219 633.542969 643.964844 635.796875 644.273438 638.054688 C 645.171875 644.152344 645.941406 650.265625 646.871094 656.355469 C 647.058594 657.578125 646.90625 657.777344 645.652344 657.777344 C 636.554688 657.78125 627.453125 657.78125 618.347656 657.777344 C 616.691406 657.777344 615.96875 657.996094 615.660156 656.097656 C 613.671875 647.3125 611.261719 638.589844 609.5625 629.757812 C 609.707031 629.25 610.453125 629.34375 610.882812 629.285156 Z M 629.300781 759.148438 C 626.882812 759.007812 624.460938 758.820312 622.042969 758.726562 C 620.136719 758.652344 618.847656 757.800781 618.1875 756.003906 C 610.171875 731.847656 603.242188 707.308594 595.417969 683.074219 C 590.175781 665.5 584.175781 648.109375 579.070312 630.53125 C 579.074219 629.039062 580.785156 629.199219 581.851562 629.210938 C 584.566406 629.203125 587.285156 629.210938 590 629.210938 C 590 629.238281 590 629.261719 590 629.292969 C 593.226562 629.359375 596.472656 629.132812 599.683594 629.414062 C 600.464844 629.722656 600.414062 630.785156 600.679688 631.488281 C 602.6875 640.058594 604.902344 648.59375 606.820312 657.183594 C 607.308594 658.652344 595.8125 656.984375 595.914062 658.226562 C 596.4375 660.773438 597.8125 663.144531 598.671875 665.617188 C 598.921875 666.230469 599.429688 666.476562 600.074219 666.480469 C 602.644531 666.515625 605.21875 666.503906 607.789062 666.507812 C 608.570312 666.515625 608.871094 666.75 609.046875 667.464844 C 611.058594 675.890625 613.140625 684.296875 615.132812 692.726562 C 615.191406 693.753906 613.816406 693.34375 613.164062 693.457031 C 610.007812 693.496094 606.84375 693.308594 603.695312 693.484375 C 602.496094 693.695312 605.292969 699.972656 605.492188 701.128906 C 605.777344 701.980469 605.992188 702.109375 606.960938 702.101562 C 609.96875 702.101562 612.984375 702.015625 615.992188 702.0625 C 617.085938 702.097656 617.273438 702.242188 617.511719 703.25 C 619.535156 712.046875 621.734375 720.804688 623.84375 729.585938 C 623.921875 730.550781 622.230469 730.097656 621.597656 730.226562 C 620.207031 730.253906 618.808594 730.273438 617.414062 730.308594 C 616.703125 730.300781 616.363281 730.796875 616.632812 731.46875 C 620.046875 740.148438 617.0625 739.058594 625.34375 738.953125 C 625.652344 738.953125 625.894531 739.144531 626.011719 739.441406 C 627.535156 745.78125 629.066406 752.15625 630.273438 758.554688 C 630.28125 759.007812 629.710938 759.210938 629.300781 759.148438 Z M 632.902344 729.664062 C 632.636719 728.675781 632.34375 727.691406 632.105469 726.691406 C 630.222656 718.699219 628.292969 710.71875 626.460938 702.707031 C 626.296875 701.96875 627.207031 701.960938 627.734375 701.992188 C 628.980469 701.996094 630.226562 702.003906 631.476562 702.003906 C 634.261719 702.003906 637.054688 702.003906 639.839844 702.003906 C 639.839844 702.007812 639.839844 702.019531 639.839844 702.027344 C 644.097656 702.066406 648.351562 701.9375 652.609375 702.089844 C 653.070312 702.121094 653.402344 702.445312 653.472656 702.933594 C 653.660156 704.242188 653.84375 705.546875 654.015625 706.859375 C 654.855469 713.777344 656.125 720.628906 657.058594 727.539062 C 657.023438 728.238281 657.617188 729.90625 656.65625 730.101562 C 648.964844 730.238281 641.246094 730.238281 633.550781 730.167969 C 633.253906 730.136719 632.992188 729.992188 632.902344 729.664062 Z M 660.492188 760.566406 C 656.679688 760.453125 652.871094 760.273438 649.066406 760.082031 C 646.285156 759.953125 643.496094 759.832031 640.714844 759.695312 C 640.308594 759.703125 639.785156 759.578125 639.589844 759.207031 C 638.121094 753.617188 637.039062 747.917969 635.707031 742.289062 C 635.578125 741.714844 635.511719 741.128906 635.347656 740.566406 C 634.886719 738.949219 635.121094 738.894531 636.761719 738.894531 C 640.0625 738.902344 643.363281 738.894531 646.664062 738.894531 C 646.664062 738.890625 646.664062 738.890625 646.664062 738.882812 C 650.398438 738.90625 654.140625 738.820312 657.878906 738.941406 C 658.679688 738.964844 658.730469 739.839844 658.835938 740.445312 C 659.652344 746.988281 660.789062 753.492188 661.535156 760.035156 C 661.460938 760.535156 660.894531 760.582031 660.492188 760.566406 Z M 659.261719 681.570312 C 658.589844 676.851562 657.875 672.140625 657.152344 667.429688 C 657.0625 667.085938 657.25 666.621094 657.605469 666.578125 C 667.277344 666.339844 676.96875 666.394531 686.644531 666.476562 C 687.273438 666.503906 687.53125 666.777344 687.582031 667.449219 C 688.203125 675.785156 689.011719 684.105469 689.601562 692.441406 C 689.640625 693.03125 689.308594 693.375 688.667969 693.402344 C 684.195312 693.472656 679.71875 693.414062 675.246094 693.433594 C 675.246094 693.445312 675.246094 693.457031 675.246094 693.472656 C 670.699219 693.425781 666.152344 693.574219 661.609375 693.398438 C 660.265625 693.636719 659.78125 683.269531 659.261719 681.570312 Z M 665.9375 728.785156 C 664.792969 720.132812 663.476562 711.503906 662.355469 702.847656 C 662.308594 702.464844 662.609375 702.144531 663.011719 702.125 C 664.113281 702.085938 665.207031 702.039062 666.308594 702.03125 C 669.609375 702.019531 672.914062 702.027344 676.214844 702.027344 C 676.214844 702.019531 676.214844 702.015625 676.214844 702.007812 C 680.472656 702.039062 684.726562 701.945312 688.984375 702.054688 C 690.15625 702.121094 690.339844 702.289062 690.441406 703.507812 C 690.625 705.773438 690.785156 708.042969 690.945312 710.308594 C 691.316406 715.871094 691.71875 721.433594 692.222656 726.988281 C 692.195312 728.324219 693.0625 730.34375 690.96875 730.148438 C 683.117188 730.15625 675.265625 730.203125 667.410156 730.160156 C 666.203125 730.15625 666.101562 730.035156 665.9375 728.785156 Z M 693.933594 762.296875 C 686.375 762 678.820312 761.683594 671.269531 761.269531 C 670.554688 761.148438 670.425781 760.289062 670.355469 759.683594 C 670.074219 757.726562 669.796875 755.761719 669.515625 753.800781 C 668.886719 749.148438 668.117188 744.507812 667.621094 739.839844 C 667.59375 739.273438 667.742188 738.929688 668.535156 738.917969 C 672.425781 738.867188 676.320312 738.90625 680.214844 738.894531 C 680.214844 738.90625 680.214844 738.917969 680.214844 738.929688 C 683.957031 738.929688 687.707031 738.917969 691.449219 738.9375 C 692.957031 738.941406 693.070312 739.070312 693.164062 740.550781 C 693.382812 743.996094 693.570312 747.441406 693.820312 750.882812 C 694.101562 754.464844 694.566406 758.035156 694.636719 761.636719 C 694.65625 762.015625 694.347656 762.308594 693.933594 762.296875 Z M 695.851562 657.148438 C 695.261719 652.195312 695.070312 647.207031 694.667969 642.234375 C 694.472656 639.527344 694.304688 636.816406 694.117188 634.113281 C 694.03125 632.871094 693.914062 631.628906 693.828125 630.382812 C 693.773438 629.640625 694.066406 629.335938 694.863281 629.308594 C 700 629.210938 705.136719 629.292969 710.269531 629.269531 C 710.269531 629.261719 710.269531 629.257812 710.269531 629.25 C 715.472656 629.292969 720.6875 629.164062 725.890625 629.3125 C 727.285156 629.441406 726.636719 631.371094 726.8125 632.328125 C 726.800781 640.613281 727.167969 648.910156 726.992188 657.1875 C 726.976562 657.425781 726.632812 657.722656 726.382812 657.730469 C 717.066406 657.828125 707.75 657.734375 698.433594 657.765625 C 697.640625 657.628906 696.195312 658.113281 695.851562 657.148438 Z M 698.554688 692.664062 C 698.414062 691.421875 698.28125 690.183594 698.175781 688.9375 C 697.890625 685.496094 697.609375 682.0625 697.359375 678.625 C 697.085938 674.816406 696.847656 671.011719 696.601562 667.199219 C 696.578125 666.800781 696.871094 666.464844 697.242188 666.453125 C 702.089844 666.375 706.933594 666.441406 711.777344 666.421875 C 711.777344 666.429688 711.777344 666.441406 711.777344 666.445312 C 716.253906 666.445312 720.734375 666.441406 725.210938 666.453125 C 727.285156 666.457031 727.261719 666.46875 727.292969 668.53125 C 727.328125 676.605469 727.601562 684.683594 727.507812 692.75 C 727.484375 693.09375 727.140625 693.414062 726.761719 693.425781 C 717.660156 693.492188 708.554688 693.507812 699.453125 693.449219 C 698.953125 693.425781 698.609375 693.136719 698.554688 692.664062 Z M 701.023438 728.167969 C 700.445312 719.679688 699.652344 711.179688 699.355469 702.671875 C 699.367188 702.46875 699.722656 702.074219 699.914062 702.054688 C 708.28125 701.910156 716.65625 702.054688 725.03125 702.019531 C 725.769531 702.160156 727.371094 701.753906 727.558594 702.742188 C 727.710938 707.21875 727.648438 711.703125 727.71875 716.179688 C 727.734375 716.179688 727.757812 716.179688 727.773438 716.179688 C 727.773438 720.144531 727.78125 724.117188 727.773438 728.082031 C 727.773438 730.160156 727.769531 730.160156 725.71875 730.160156 C 718.226562 730.160156 710.734375 730.171875 703.242188 730.179688 C 700.992188 730.179688 701.261719 730.214844 701.023438 728.167969 Z M 728.019531 763.496094 C 728.007812 763.757812 727.699219 764.039062 727.4375 764.058594 C 724.363281 764.117188 721.28125 763.835938 718.207031 763.707031 C 713.527344 763.425781 708.808594 763.433594 704.152344 763 C 703.972656 762.957031 703.742188 762.761719 703.691406 762.59375 C 702.910156 757.019531 702.757812 751.34375 702.238281 745.726562 C 702.089844 743.679688 702.023438 741.628906 701.925781 739.578125 C 701.914062 739.308594 702.191406 738.988281 702.449219 738.96875 C 706.554688 738.832031 710.664062 738.953125 714.773438 738.914062 C 714.773438 738.914062 714.773438 738.917969 714.773438 738.917969 C 718.878906 738.953125 722.996094 738.835938 727.097656 738.980469 C 727.796875 739.070312 727.753906 739.863281 727.78125 740.398438 C 727.820312 748.09375 728.132812 755.800781 728.019531 763.496094 Z M 762.800781 740.382812 C 762.636719 744.414062 762.527344 748.457031 762.289062 752.492188 C 762.269531 752.492188 762.253906 752.492188 762.242188 752.492188 C 762.050781 756.601562 761.835938 760.703125 761.628906 764.816406 C 761.6875 765.941406 760.738281 765.894531 759.910156 765.882812 C 754.476562 765.734375 749.054688 765.34375 743.628906 765.09375 C 741.585938 764.925781 739.5 765.101562 737.480469 764.710938 C 736.917969 764.472656 736.988281 763.691406 736.957031 763.164062 C 736.96875 755.304688 736.78125 747.449219 736.886719 739.59375 C 736.957031 739.003906 737.640625 738.953125 738.113281 738.949219 C 745.3125 738.902344 752.507812 738.929688 759.707031 738.914062 C 760.996094 739.039062 763.128906 738.351562 762.800781 740.382812 Z M 764.695312 703.320312 C 764.636719 705.082031 764.535156 706.835938 764.410156 708.589844 C 764.113281 715.40625 763.945312 722.226562 763.519531 729.035156 C 763.460938 729.953125 763.25 730.109375 762.265625 730.144531 C 754.5625 730.183594 746.863281 730.160156 739.15625 730.179688 C 736.019531 730.359375 736.734375 729.53125 736.574219 726.984375 C 736.5625 718.914062 736.4375 710.847656 736.496094 702.777344 C 736.515625 702.398438 736.8125 702.121094 737.226562 702.113281 C 741.628906 702.007812 746.027344 702.03125 750.429688 702.03125 C 750.429688 702.019531 750.429688 702.007812 750.429688 701.996094 C 754.757812 702.015625 759.089844 701.960938 763.414062 702.019531 C 764.488281 702.066406 764.726562 702.300781 764.695312 703.320312 Z M 766.476562 668.515625 C 766.175781 674.597656 765.808594 680.671875 765.570312 686.757812 C 765.472656 688.734375 765.359375 690.710938 765.246094 692.691406 C 765.222656 693.070312 764.902344 693.390625 764.550781 693.414062 C 755.457031 693.519531 746.355469 693.503906 737.265625 693.445312 C 736.789062 693.421875 736.484375 693.105469 736.445312 692.59375 C 736.1875 684.382812 736.230469 676.164062 736.082031 667.949219 C 735.960938 666.917969 736.402344 666.457031 737.425781 666.507812 C 742.117188 666.394531 746.816406 666.46875 751.507812 666.453125 C 751.507812 666.445312 751.507812 666.441406 751.507812 666.433594 C 755.835938 666.433594 760.167969 666.429688 764.492188 666.433594 C 766.578125 666.433594 766.578125 666.476562 766.476562 668.515625 Z M 768.089844 636.199219 C 767.757812 643.167969 767.449219 650.132812 766.976562 657.09375 C 766.933594 657.449219 766.613281 657.710938 766.199219 657.742188 C 756.804688 657.828125 747.40625 657.753906 738.007812 657.78125 C 735.964844 657.78125 735.925781 657.777344 735.902344 655.707031 C 735.816406 647.554688 735.75 639.40625 735.679688 631.253906 C 735.757812 630.613281 735.472656 629.542969 736.34375 629.382812 C 741.550781 629.175781 746.769531 629.292969 751.980469 629.246094 C 751.980469 629.238281 751.980469 629.238281 751.980469 629.234375 C 757.125 629.257812 762.257812 629.179688 767.402344 629.273438 C 768.027344 629.296875 768.324219 629.613281 768.304688 630.257812 C 768.246094 632.242188 768.171875 634.222656 768.089844 636.199219 Z M 796.871094 740.976562 C 796.207031 746.730469 795.472656 752.480469 794.757812 758.234375 C 794.410156 760.996094 794.074219 763.765625 793.722656 766.527344 C 793.707031 766.988281 793.472656 767.355469 793.046875 767.542969 C 786.179688 767.484375 779.273438 766.796875 772.390625 766.632812 C 771.664062 766.59375 770.554688 766.574219 770.566406 765.597656 C 770.578125 761.339844 770.953125 757.097656 771.117188 752.847656 C 771.132812 752.847656 771.15625 752.847656 771.171875 752.851562 C 771.464844 748.398438 771.4375 743.890625 771.878906 739.453125 C 772.09375 738.359375 780.410156 739.152344 781.996094 738.929688 C 786.324219 738.929688 790.652344 738.925781 794.984375 738.917969 C 797.128906 738.90625 797.101562 738.953125 796.871094 740.976562 Z M 798.171875 729.746094 C 797.835938 730.277344 797.132812 730.171875 796.585938 730.195312 C 789.171875 730.203125 781.753906 730.203125 774.332031 730.195312 C 772.246094 730.195312 772.21875 730.179688 772.316406 728.125 C 772.53125 723.578125 772.789062 719.03125 773.015625 714.492188 C 773.355469 712.921875 773.023438 701.660156 774.285156 702.050781 C 778.757812 701.933594 783.242188 702.039062 787.71875 702.003906 C 787.71875 701.996094 787.71875 701.996094 787.71875 701.992188 C 792.195312 702.039062 796.679688 701.886719 801.152344 702.066406 C 801.394531 702.078125 801.695312 702.441406 801.683594 702.679688 C 800.691406 711.714844 799.511719 720.773438 798.171875 729.746094 Z M 776.316406 693.472656 C 774.222656 693.472656 774.222656 693.457031 774.261719 691.402344 C 774.460938 684.582031 775.074219 677.789062 775.34375 670.96875 C 775.417969 669.652344 775.546875 668.339844 775.664062 667.027344 C 775.6875 666.773438 775.996094 666.503906 776.261719 666.488281 C 781.171875 666.363281 786.09375 666.46875 791 666.433594 C 791 666.40625 791 666.382812 791 666.351562 C 795.769531 666.375 800.539062 666.289062 805.300781 666.40625 C 806.183594 666.441406 806.375 666.636719 806.292969 667.449219 C 805.5 675.84375 804.007812 684.15625 803.085938 692.535156 C 803.003906 693.175781 802.738281 693.402344 802.066406 693.433594 C 793.480469 693.492188 784.898438 693.457031 776.316406 693.472656 Z M 858.558594 630.09375 C 855.667969 646.660156 852.351562 663.144531 849.359375 679.683594 C 843.914062 708.316406 838.671875 736.996094 833.496094 765.679688 C 833.191406 767.105469 832.917969 769.332031 831.082031 769.421875 C 822.273438 769.4375 813.464844 768.722656 804.660156 768.40625 C 803.972656 768.285156 802.753906 768.546875 802.613281 767.613281 C 803 761.898438 804.03125 756.246094 804.691406 750.5625 C 805.046875 747.792969 805.335938 745.015625 805.726562 742.253906 C 806.277344 738.382812 805.511719 738.925781 809.460938 738.917969 C 816.214844 738.914062 822.980469 738.9375 829.734375 738.9375 C 830.355469 738.847656 831.148438 739.09375 831.617188 738.601562 C 832.285156 736.0625 832.808594 733.457031 833.238281 730.847656 C 833.28125 730.570312 833.023438 730.253906 832.746094 730.242188 C 824.738281 730.085938 816.730469 730.261719 808.726562 730.167969 C 808.269531 730.136719 807.519531 730.226562 807.472656 729.597656 C 807.496094 728.9375 807.484375 728.273438 807.566406 727.621094 C 808.242188 722.300781 808.964844 716.992188 809.664062 711.675781 C 810.125 708.636719 810.375 705.53125 810.953125 702.523438 C 811.34375 701.820312 812.269531 702.074219 812.941406 701.992188 C 821.753906 701.902344 830.570312 702.148438 839.382812 701.972656 C 839.640625 701.960938 839.945312 701.671875 839.996094 701.414062 C 840.476562 699.1875 840.945312 696.964844 841.414062 694.734375 C 841.722656 693.640625 840.84375 693.4375 839.984375 693.492188 C 837.925781 693.46875 835.867188 693.449219 833.8125 693.449219 C 826.832031 693.398438 819.847656 693.542969 812.875 693.378906 C 812.515625 693.363281 812.222656 693.011719 812.238281 692.628906 C 813.03125 684.082031 814.351562 675.574219 815.433594 667.058594 C 815.476562 666.808594 815.777344 666.53125 816.046875 666.515625 C 825.738281 666.21875 835.445312 666.527344 845.128906 666.210938 C 846.089844 666.050781 845.902344 664.488281 846.230469 663.757812 C 846.574219 662.328125 846.910156 660.902344 847.25 659.472656 C 847.492188 658.785156 847.75 657.765625 846.742188 657.789062 C 845.640625 657.757812 844.539062 657.753906 843.4375 657.753906 C 834.695312 657.695312 825.953125 657.847656 817.214844 657.671875 C 816.984375 657.660156 816.640625 657.292969 816.660156 657.070312 C 817.417969 648.59375 818.960938 640.191406 819.878906 631.726562 C 820.105469 631.011719 819.832031 629.640625 820.746094 629.425781 C 827.054688 629.050781 833.378906 629.320312 839.695312 629.246094 C 839.695312 629.226562 839.695312 629.214844 839.695312 629.199219 C 845.792969 629.25 851.890625 629.074219 857.980469 629.292969 C 858.355469 629.320312 858.625 629.703125 858.558594 630.09375 Z M 858.558594 630.09375 " fill-opacity="1" fill-rule="nonzero"/><path fill="#414042" d="M 636.015625 839.316406 C 634.226562 838.65625 634.222656 838.65625 634.199219 836.839844 C 634.1875 835.8125 634.1875 834.78125 634.175781 833.753906 C 634.179688 833.28125 634.167969 832.628906 633.636719 832.472656 C 629.914062 832.222656 626.152344 832.4375 622.414062 832.367188 C 622.414062 832.355469 622.414062 832.34375 622.414062 832.332031 C 619.40625 832.332031 616.394531 832.332031 613.386719 832.332031 C 612.453125 832.519531 610.464844 831.773438 610.40625 833.222656 C 610.394531 834.179688 610.40625 835.128906 610.394531 836.085938 C 610.355469 839.042969 610.746094 838.539062 607.863281 839.539062 C 590.125 845.386719 578.683594 864.710938 581.878906 883.082031 C 589.925781 928.765625 656.21875 928.183594 662.96875 882.148438 C 665.726562 863.679688 653.675781 845.035156 636.015625 839.316406 Z M 603.171875 877.183594 C 602.984375 854.410156 636.1875 850.789062 641.117188 872.921875 C 645.96875 900.292969 604.558594 904.292969 603.171875 877.183594 Z M 603.171875 877.183594 " fill-opacity="1" fill-rule="nonzero"/><path fill="#414042" d="M 864.070312 839.246094 C 863.078125 838.988281 862.570312 838.382812 862.640625 837.335938 C 862.65625 836.230469 862.617188 835.128906 862.605469 834.027344 C 862.566406 832.453125 862.496094 832.378906 861.019531 832.347656 C 857.566406 832.292969 854.117188 832.324219 850.660156 832.320312 C 850.660156 832.296875 850.660156 832.269531 850.660156 832.246094 C 846.917969 832.273438 843.167969 832.175781 839.425781 832.304688 C 838.578125 832.453125 838.8125 833.53125 838.726562 834.175781 C 838.695312 835.277344 838.703125 836.378906 838.667969 837.480469 C 838.632812 838.574219 838.5 838.746094 837.507812 839.066406 C 830.101562 841.210938 823.460938 845.847656 818.589844 851.773438 C 797.332031 876.78125 816.828125 916.75 849.160156 917.175781 C 878.441406 919.070312 900.378906 887.757812 887.976562 861.027344 C 883.484375 850.738281 874.632812 842.871094 864.070312 839.246094 Z M 831.648438 879.007812 C 829.644531 852.910156 867.980469 850.316406 869.636719 876.3125 C 869.683594 900.71875 834.6875 902.15625 831.648438 879.007812 Z M 831.648438 879.007812 " fill-opacity="1" fill-rule="nonzero"/><path fill="#414042" d="M 950.679688 539.910156 C 932.78125 544.761719 914.625 548.890625 896.890625 554.269531 C 894.050781 555.660156 893.941406 559.964844 893.753906 562.746094 C 893.800781 568.203125 895.75 573.53125 899.035156 577.871094 C 900.039062 578.972656 901.152344 580.722656 902.828125 580.558594 C 921.675781 575.898438 940.59375 571.253906 959.285156 565.976562 C 975.101562 558.992188 965.667969 535.890625 950.679688 539.910156 Z M 950.679688 539.910156 " fill-opacity="1" fill-rule="nonzero"/><g transform="matrix(1, 0, 0, 1, 380, 882)"><g clip-path="url(#718fd9560c)"><g fill="#414042" fill-opacity="1"><g transform="translate(1.890625, 175.089557)"><g><path d="M 36.46875 1.21875 C 26.863281 1.21875 19.175781 -1.789062 13.40625 -7.8125 C 7.632812 -13.84375 4.75 -22.117188 4.75 -32.640625 L 4.75 -93.3125 C 4.75 -106.394531 7.351562 -116.253906 12.5625 -122.890625 C 17.769531 -129.535156 25.941406 -132.859375 37.078125 -132.859375 C 46.785156 -132.859375 54.601562 -130.203125 60.53125 -124.890625 C 66.457031 -119.578125 69.421875 -111.914062 69.421875 -101.90625 L 69.421875 -79.21875 L 43.21875 -79.21875 L 43.21875 -98.6875 C 43.21875 -102.46875 42.753906 -105.070312 41.828125 -106.5 C 40.910156 -107.925781 39.328125 -108.640625 37.078125 -108.640625 C 34.734375 -108.640625 33.125 -107.820312 32.25 -106.1875 C 31.382812 -104.550781 30.953125 -102.148438 30.953125 -98.984375 L 30.953125 -32.953125 C 30.953125 -29.472656 31.460938 -26.941406 32.484375 -25.359375 C 33.503906 -23.773438 35.035156 -22.984375 37.078125 -22.984375 C 41.171875 -22.984375 43.21875 -26.304688 43.21875 -32.953125 L 43.21875 -56.703125 L 69.71875 -56.703125 L 69.71875 -31.875 C 69.71875 -9.8125 58.632812 1.21875 36.46875 1.21875 Z M 36.46875 1.21875 "/></g></g></g><g fill="#414042" fill-opacity="1"><g transform="translate(74.523661, 175.089557)"><g><path d="M 5.359375 0 L 5.359375 -132.390625 L 32.640625 -132.390625 L 32.640625 0 Z M 5.359375 0 "/></g></g></g><g fill="#414042" fill-opacity="1"><g transform="translate(112.525733, 175.089557)"><g><path d="M 5.203125 -119.671875 L 5.203125 -138.375 L 32.03125 -138.375 L 32.03125 -119.671875 Z M 5.203125 0 L 5.203125 -112.171875 L 32.03125 -112.171875 L 32.03125 0 Z M 5.203125 0 "/></g></g></g><g fill="#414042" fill-opacity="1"><g transform="translate(149.761646, 175.089557)"><g><path d="M 39.078125 1.21875 C 26.816406 1.21875 17.976562 -1.894531 12.5625 -8.125 C 7.144531 -14.351562 4.4375 -23.90625 4.4375 -36.78125 L 4.4375 -71.40625 C 4.4375 -81.113281 5.484375 -89.003906 7.578125 -95.078125 C 9.671875 -101.160156 13.195312 -105.734375 18.15625 -108.796875 C 23.113281 -111.859375 29.984375 -113.390625 38.765625 -113.390625 C 48.367188 -113.390625 56.179688 -110.882812 62.203125 -105.875 C 68.234375 -100.875 71.25 -93.878906 71.25 -84.890625 L 71.25 -67.734375 L 43.984375 -67.734375 L 43.984375 -83.515625 C 43.984375 -86.472656 43.570312 -88.742188 42.75 -90.328125 C 41.9375 -91.910156 40.351562 -92.703125 38 -92.703125 C 33.601562 -92.703125 31.40625 -89.585938 31.40625 -83.359375 L 31.40625 -28.96875 C 31.40625 -26.40625 31.941406 -24.226562 33.015625 -22.4375 C 34.085938 -20.65625 35.695312 -19.765625 37.84375 -19.765625 C 39.988281 -19.765625 41.597656 -20.632812 42.671875 -22.375 C 43.742188 -24.113281 44.226562 -26.359375 44.125 -29.109375 L 43.984375 -47.96875 L 71.25 -47.96875 L 71.25 -28.34375 C 71.25 -19.15625 68.257812 -11.929688 62.28125 -6.671875 C 56.3125 -1.410156 48.578125 1.21875 39.078125 1.21875 Z M 39.078125 1.21875 "/></g></g></g><g fill="#414042" fill-opacity="1"><g transform="translate(224.999629, 175.089557)"><g><path d="M 5.359375 0 L 5.359375 -132.390625 L 31.875 -132.390625 L 31.875 -73.546875 L 44.75 -112.171875 L 72.484375 -112.171875 L 55.625 -63.4375 L 77.078125 0 L 48.578125 0 L 31.875 -52.859375 L 31.875 0 Z M 5.359375 0 "/></g></g></g><g fill="#414042" fill-opacity="1"><g transform="translate(300.237613, 175.089557)"><g><path d="M 5.828125 0 L 5.828125 -131.625 L 45.96875 -131.625 L 57 -51.328125 L 68.03125 -131.625 L 108.484375 -131.625 L 108.484375 0 L 84.4375 0 L 84.4375 -94.859375 L 69.265625 0 L 45.65625 0 L 29.578125 -94.859375 L 29.578125 0 Z M 5.828125 0 "/></g></g></g><g fill="#414042" fill-opacity="1"><g transform="translate(414.550347, 175.089557)"><g><path d="M 25.75 1.21875 C 17.0625 1.21875 11.109375 -1.664062 7.890625 -7.4375 C 4.671875 -13.207031 3.0625 -21.453125 3.0625 -32.171875 C 3.0625 -40.960938 4.207031 -47.707031 6.5 -52.40625 C 8.800781 -57.101562 11.992188 -60.550781 16.078125 -62.75 C 20.171875 -64.945312 26.40625 -67.375 34.78125 -70.03125 L 42.140625 -72.484375 L 42.140625 -83.96875 C 42.140625 -86.9375 41.550781 -89.210938 40.375 -90.796875 C 39.195312 -92.378906 37.789062 -93.171875 36.15625 -93.171875 C 34.726562 -93.171875 33.476562 -92.503906 32.40625 -91.171875 C 31.332031 -89.847656 30.796875 -88.0625 30.796875 -85.8125 L 30.796875 -79.0625 L 4.75 -79.0625 L 4.75 -82.75 C 4.75 -93.78125 7.328125 -101.644531 12.484375 -106.34375 C 17.648438 -111.039062 26.054688 -113.390625 37.703125 -113.390625 C 46.992188 -113.390625 54.550781 -110.960938 60.375 -106.109375 C 66.195312 -101.265625 69.109375 -94.394531 69.109375 -85.5 L 69.109375 0 L 42.453125 0 L 42.453125 -13.328125 C 41.117188 -8.734375 38.992188 -5.160156 36.078125 -2.609375 C 33.171875 -0.0546875 29.726562 1.21875 25.75 1.21875 Z M 36.3125 -19.609375 C 38.351562 -19.609375 39.804688 -20.453125 40.671875 -22.140625 C 41.546875 -23.828125 41.984375 -25.894531 41.984375 -28.34375 L 41.984375 -59.609375 C 38.003906 -58.078125 35.066406 -56.132812 33.171875 -53.78125 C 31.285156 -51.4375 30.34375 -48.171875 30.34375 -43.984375 L 30.34375 -29.578125 C 30.34375 -22.929688 32.332031 -19.609375 36.3125 -19.609375 Z M 36.3125 -19.609375 "/></g></g></g><g fill="#414042" fill-opacity="1"><g transform="translate(488.562486, 175.089557)"><g><path d="M 5.359375 -112.171875 L 32.171875 -112.171875 L 32.171875 -99.75 C 33.503906 -104.144531 35.828125 -107.539062 39.140625 -109.9375 C 42.460938 -112.34375 46.578125 -113.546875 51.484375 -113.546875 L 51.484375 -91.171875 C 47.703125 -91.171875 43.535156 -90.632812 38.984375 -89.5625 C 34.441406 -88.488281 32.171875 -87.238281 32.171875 -85.8125 L 32.171875 0 L 5.359375 0 Z M 5.359375 -112.171875 "/></g></g></g><g fill="#414042" fill-opacity="1"><g transform="translate(541.275067, 175.089557)"><g><path d="M 5.359375 0 L 5.359375 -132.390625 L 31.875 -132.390625 L 31.875 -73.546875 L 44.75 -112.171875 L 72.484375 -112.171875 L 55.625 -63.4375 L 77.078125 0 L 48.578125 0 L 31.875 -52.859375 L 31.875 0 Z M 5.359375 0 "/></g></g></g><g fill="#414042" fill-opacity="1"><g transform="translate(616.513051, 175.089557)"><g><path d="M 36.78125 1.21875 C 25.226562 1.21875 16.945312 -1.945312 11.9375 -8.28125 C 6.9375 -14.613281 4.4375 -24.0625 4.4375 -36.625 L 4.4375 -81.671875 C 4.4375 -91.992188 7.398438 -99.859375 13.328125 -105.265625 C 19.253906 -110.679688 27.53125 -113.390625 38.15625 -113.390625 C 59.707031 -113.390625 70.484375 -102.816406 70.484375 -81.671875 L 70.484375 -73.546875 C 70.484375 -65.378906 70.382812 -58.738281 70.1875 -53.625 L 31.265625 -53.625 L 31.265625 -31.875 C 31.265625 -27.988281 31.671875 -24.945312 32.484375 -22.75 C 33.304688 -20.550781 35.046875 -19.453125 37.703125 -19.453125 C 39.742188 -19.453125 41.195312 -20.066406 42.0625 -21.296875 C 42.925781 -22.523438 43.4375 -23.929688 43.59375 -25.515625 C 43.75 -27.097656 43.828125 -29.421875 43.828125 -32.484375 L 43.828125 -43.359375 L 70.484375 -43.359375 L 70.484375 -36.921875 C 70.484375 -23.847656 67.953125 -14.222656 62.890625 -8.046875 C 57.835938 -1.867188 49.132812 1.21875 36.78125 1.21875 Z M 43.828125 -66.96875 L 43.828125 -81.375 C 43.828125 -89.4375 41.832031 -93.46875 37.84375 -93.46875 C 33.351562 -93.46875 31.109375 -89.4375 31.109375 -81.375 L 31.109375 -66.96875 Z M 43.828125 -66.96875 "/></g></g></g><g fill="#414042" fill-opacity="1"><g transform="translate(691.29135, 175.089557)"><g><path d="M 28.5 1.21875 C 21.445312 1.21875 16.59375 -0.257812 13.9375 -3.21875 C 11.28125 -6.175781 9.953125 -10.925781 9.953125 -17.46875 L 9.953125 -87.5 L 2.453125 -87.5 L 2.453125 -107.875 L 9.953125 -107.875 L 9.953125 -131.625 L 36.015625 -131.625 L 36.015625 -107.875 L 43.671875 -107.875 L 43.671875 -87.5 L 36.015625 -87.5 L 36.015625 -24.515625 C 36.015625 -22.578125 36.164062 -21.144531 36.46875 -20.21875 C 36.769531 -19.300781 37.585938 -18.84375 38.921875 -18.84375 C 39.941406 -18.84375 40.910156 -18.894531 41.828125 -19 C 42.753906 -19.101562 43.367188 -19.15625 43.671875 -19.15625 L 43.671875 -0.765625 C 42.140625 -0.359375 39.914062 0.0703125 37 0.53125 C 34.09375 0.988281 31.257812 1.21875 28.5 1.21875 Z M 28.5 1.21875 "/></g></g></g></g></g><g transform="matrix(1, 0, 0, 1, 522, 1078)"><g clip-path="url(#a81456c17e)"><g fill="#414042" fill-opacity="1"><g transform="translate(2.765613, 48.995352)"><g><path d="M 20.015625 0.625 C 16.640625 0.625 13.648438 -0.113281 11.046875 -1.59375 C 8.441406 -3.070312 6.410156 -5.113281 4.953125 -7.71875 C 3.492188 -10.320312 2.765625 -13.304688 2.765625 -16.671875 C 2.765625 -20.066406 3.492188 -23.054688 4.953125 -25.640625 C 6.410156 -28.234375 8.441406 -30.269531 11.046875 -31.75 C 13.648438 -33.226562 16.640625 -33.96875 20.015625 -33.96875 C 23.410156 -33.96875 26.398438 -33.226562 28.984375 -31.75 C 31.578125 -30.269531 33.609375 -28.234375 35.078125 -25.640625 C 36.554688 -23.054688 37.296875 -20.066406 37.296875 -16.671875 C 37.296875 -13.304688 36.554688 -10.320312 35.078125 -7.71875 C 33.609375 -5.113281 31.578125 -3.070312 28.984375 -1.59375 C 26.398438 -0.113281 23.410156 0.625 20.015625 0.625 Z M 7.046875 -16.671875 C 7.046875 -14.097656 7.59375 -11.828125 8.6875 -9.859375 C 9.789062 -7.890625 11.316406 -6.347656 13.265625 -5.234375 C 15.222656 -4.128906 17.472656 -3.578125 20.015625 -3.578125 C 22.585938 -3.578125 24.84375 -4.128906 26.78125 -5.234375 C 28.71875 -6.347656 30.234375 -7.890625 31.328125 -9.859375 C 32.421875 -11.828125 32.96875 -14.097656 32.96875 -16.671875 C 32.96875 -19.273438 32.421875 -21.550781 31.328125 -23.5 C 30.234375 -25.457031 28.71875 -26.992188 26.78125 -28.109375 C 24.84375 -29.222656 22.585938 -29.78125 20.015625 -29.78125 C 17.472656 -29.78125 15.222656 -29.222656 13.265625 -28.109375 C 11.316406 -26.992188 9.789062 -25.457031 8.6875 -23.5 C 7.59375 -21.550781 7.046875 -19.273438 7.046875 -16.671875 Z M 7.046875 -16.671875 "/></g></g></g><g fill="#414042" fill-opacity="1"><g transform="translate(42.770859, 48.995352)"><g><path d="M 4.859375 0 L 4.859375 -33.34375 L 8.8125 -33.34375 L 27.25 -7.234375 L 27.25 -33.34375 L 31.34375 -33.34375 L 31.34375 0 L 27.4375 0 L 9 -26.109375 L 9 0 Z M 4.859375 0 "/></g></g></g><g fill="#414042" fill-opacity="1"><g transform="translate(78.966092, 48.995352)"><g><path d="M 4.859375 0 L 4.859375 -33.34375 L 9.046875 -33.34375 L 9.046875 -4 L 25.25 -4 L 25.25 0 Z M 4.859375 0 "/></g></g></g><g fill="#414042" fill-opacity="1"><g transform="translate(105.683878, 48.995352)"><g><path d="M 4.859375 0 L 4.859375 -33.34375 L 9.046875 -33.34375 L 9.046875 0 Z M 4.859375 0 "/></g></g></g><g fill="#414042" fill-opacity="1"><g transform="translate(119.590463, 48.995352)"><g><path d="M 4.859375 0 L 4.859375 -33.34375 L 8.8125 -33.34375 L 27.25 -7.234375 L 27.25 -33.34375 L 31.34375 -33.34375 L 31.34375 0 L 27.4375 0 L 9 -26.109375 L 9 0 Z M 4.859375 0 "/></g></g></g><g fill="#414042" fill-opacity="1"><g transform="translate(155.785696, 48.995352)"><g><path d="M 4.859375 0 L 4.859375 -33.34375 L 25.109375 -33.34375 L 25.109375 -29.4375 L 9.046875 -29.4375 L 9.046875 -18.90625 L 23.921875 -18.90625 L 23.921875 -15.046875 L 9.046875 -15.046875 L 9.046875 -3.90625 L 25.625 -3.90625 L 25.625 0 Z M 4.859375 0 "/></g></g></g><g fill="#414042" fill-opacity="1"><g transform="translate(184.503772, 48.995352)"><g/></g></g><g fill="#414042" fill-opacity="1"><g transform="translate(196.314852, 48.995352)"><g><path d="M 15.953125 0.625 C 13.285156 0.625 10.972656 0.171875 9.015625 -0.734375 C 7.066406 -1.640625 5.5625 -2.910156 4.5 -4.546875 C 3.4375 -6.179688 2.890625 -8.082031 2.859375 -10.25 L 7.046875 -10.25 C 7.109375 -8.113281 7.957031 -6.429688 9.59375 -5.203125 C 11.226562 -3.984375 13.347656 -3.375 15.953125 -3.375 C 18.304688 -3.375 20.171875 -3.832031 21.546875 -4.75 C 22.929688 -5.675781 23.625 -6.96875 23.625 -8.625 C 23.625 -10.175781 22.957031 -11.421875 21.625 -12.359375 C 20.289062 -13.296875 18.117188 -14.113281 15.109375 -14.8125 C 11.003906 -15.800781 8 -17.066406 6.09375 -18.609375 C 4.1875 -20.148438 3.234375 -22.203125 3.234375 -24.765625 C 3.234375 -27.597656 4.304688 -29.835938 6.453125 -31.484375 C 8.597656 -33.140625 11.5 -33.96875 15.15625 -33.96875 C 18.894531 -33.96875 21.851562 -33.03125 24.03125 -31.15625 C 26.207031 -29.28125 27.3125 -26.722656 27.34375 -23.484375 L 23.203125 -23.484375 C 23.171875 -25.484375 22.429688 -27.0625 20.984375 -28.21875 C 19.535156 -29.382812 17.59375 -29.96875 15.15625 -29.96875 C 12.769531 -29.96875 10.898438 -29.5 9.546875 -28.5625 C 8.203125 -27.625 7.53125 -26.359375 7.53125 -24.765625 C 7.53125 -23.398438 8.15625 -22.25 9.40625 -21.3125 C 10.664062 -20.375 12.914062 -19.507812 16.15625 -18.71875 C 20.40625 -17.675781 23.4375 -16.367188 25.25 -14.796875 C 27.0625 -13.222656 27.96875 -11.210938 27.96875 -8.765625 C 27.96875 -5.878906 26.878906 -3.59375 24.703125 -1.90625 C 22.523438 -0.21875 19.609375 0.625 15.953125 0.625 Z M 15.953125 0.625 "/></g></g></g><g fill="#414042" fill-opacity="1"><g transform="translate(227.128433, 48.995352)"><g><path d="M 26.71875 0 L 26.71875 -15 L 9.046875 -15 L 9.046875 0 L 4.859375 0 L 4.859375 -33.34375 L 9.046875 -33.34375 L 9.046875 -19.015625 L 26.71875 -19.015625 L 26.71875 -33.34375 L 30.921875 -33.34375 L 30.921875 0 Z M 26.71875 0 "/></g></g></g><g fill="#414042" fill-opacity="1"><g transform="translate(262.895016, 48.995352)"><g><path d="M 20.015625 0.625 C 16.640625 0.625 13.648438 -0.113281 11.046875 -1.59375 C 8.441406 -3.070312 6.410156 -5.113281 4.953125 -7.71875 C 3.492188 -10.320312 2.765625 -13.304688 2.765625 -16.671875 C 2.765625 -20.066406 3.492188 -23.054688 4.953125 -25.640625 C 6.410156 -28.234375 8.441406 -30.269531 11.046875 -31.75 C 13.648438 -33.226562 16.640625 -33.96875 20.015625 -33.96875 C 23.410156 -33.96875 26.398438 -33.226562 28.984375 -31.75 C 31.578125 -30.269531 33.609375 -28.234375 35.078125 -25.640625 C 36.554688 -23.054688 37.296875 -20.066406 37.296875 -16.671875 C 37.296875 -13.304688 36.554688 -10.320312 35.078125 -7.71875 C 33.609375 -5.113281 31.578125 -3.070312 28.984375 -1.59375 C 26.398438 -0.113281 23.410156 0.625 20.015625 0.625 Z M 7.046875 -16.671875 C 7.046875 -14.097656 7.59375 -11.828125 8.6875 -9.859375 C 9.789062 -7.890625 11.316406 -6.347656 13.265625 -5.234375 C 15.222656 -4.128906 17.472656 -3.578125 20.015625 -3.578125 C 22.585938 -3.578125 24.84375 -4.128906 26.78125 -5.234375 C 28.71875 -6.347656 30.234375 -7.890625 31.328125 -9.859375 C 32.421875 -11.828125 32.96875 -14.097656 32.96875 -16.671875 C 32.96875 -19.273438 32.421875 -21.550781 31.328125 -23.5 C 30.234375 -25.457031 28.71875 -26.992188 26.78125 -28.109375 C 24.84375 -29.222656 22.585938 -29.78125 20.015625 -29.78125 C 17.472656 -29.78125 15.222656 -29.222656 13.265625 -28.109375 C 11.316406 -26.992188 9.789062 -25.457031 8.6875 -23.5 C 7.59375 -21.550781 7.046875 -19.273438 7.046875 -16.671875 Z M 7.046875 -16.671875 "/></g></g></g><g fill="#414042" fill-opacity="1"><g transform="translate(302.900261, 48.995352)"><g><path d="M 4.859375 0 L 4.859375 -33.34375 L 16.15625 -33.34375 C 18.65625 -33.34375 20.832031 -32.878906 22.6875 -31.953125 C 24.550781 -31.035156 25.988281 -29.742188 27 -28.078125 C 28.019531 -26.410156 28.53125 -24.4375 28.53125 -22.15625 C 28.53125 -19.863281 28.019531 -17.882812 27 -16.21875 C 25.988281 -14.550781 24.550781 -13.253906 22.6875 -12.328125 C 20.832031 -11.410156 18.65625 -10.953125 16.15625 -10.953125 L 9.046875 -10.953125 L 9.046875 0 Z M 9.046875 -14.859375 L 16.0625 -14.859375 C 21.519531 -14.859375 24.25 -17.273438 24.25 -22.109375 C 24.25 -26.929688 21.519531 -29.34375 16.0625 -29.34375 L 9.046875 -29.34375 Z M 9.046875 -14.859375 "/></g></g></g><g fill="#414042" fill-opacity="1"><g transform="translate(333.332846, 48.995352)"><g><path d="M 4.859375 0 L 4.859375 -33.34375 L 16.15625 -33.34375 C 18.65625 -33.34375 20.832031 -32.878906 22.6875 -31.953125 C 24.550781 -31.035156 25.988281 -29.742188 27 -28.078125 C 28.019531 -26.410156 28.53125 -24.4375 28.53125 -22.15625 C 28.53125 -19.863281 28.019531 -17.882812 27 -16.21875 C 25.988281 -14.550781 24.550781 -13.253906 22.6875 -12.328125 C 20.832031 -11.410156 18.65625 -10.953125 16.15625 -10.953125 L 9.046875 -10.953125 L 9.046875 0 Z M 9.046875 -14.859375 L 16.0625 -14.859375 C 21.519531 -14.859375 24.25 -17.273438 24.25 -22.109375 C 24.25 -26.929688 21.519531 -29.34375 16.0625 -29.34375 L 9.046875 -29.34375 Z M 9.046875 -14.859375 "/></g></g></g><g fill="#414042" fill-opacity="1"><g transform="translate(363.76543, 48.995352)"><g><path d="M 4.859375 0 L 4.859375 -33.34375 L 9.046875 -33.34375 L 9.046875 0 Z M 4.859375 0 "/></g></g></g><g fill="#414042" fill-opacity="1"><g transform="translate(377.672014, 48.995352)"><g><path d="M 4.859375 0 L 4.859375 -33.34375 L 8.8125 -33.34375 L 27.25 -7.234375 L 27.25 -33.34375 L 31.34375 -33.34375 L 31.34375 0 L 27.4375 0 L 9 -26.109375 L 9 0 Z M 4.859375 0 "/></g></g></g><g fill="#414042" fill-opacity="1"><g transform="translate(413.867247, 48.995352)"><g><path d="M 19.71875 0.625 C 17.28125 0.625 15.023438 0.195312 12.953125 -0.65625 C 10.890625 -1.519531 9.09375 -2.722656 7.5625 -4.265625 C 6.039062 -5.804688 4.859375 -7.628906 4.015625 -9.734375 C 3.179688 -11.847656 2.765625 -14.160156 2.765625 -16.671875 C 2.765625 -19.179688 3.175781 -21.484375 4 -23.578125 C 4.820312 -25.671875 5.992188 -27.492188 7.515625 -29.046875 C 9.046875 -30.609375 10.832031 -31.816406 12.875 -32.671875 C 14.925781 -33.535156 17.175781 -33.96875 19.625 -33.96875 C 22.164062 -33.96875 24.515625 -33.503906 26.671875 -32.578125 C 28.835938 -31.660156 30.707031 -30.375 32.28125 -28.71875 C 33.851562 -27.070312 34.988281 -25.15625 35.6875 -22.96875 L 31.109375 -22.96875 C 30.054688 -25.125 28.546875 -26.796875 26.578125 -27.984375 C 24.609375 -29.179688 22.335938 -29.78125 19.765625 -29.78125 C 17.296875 -29.78125 15.097656 -29.222656 13.171875 -28.109375 C 11.253906 -26.992188 9.753906 -25.453125 8.671875 -23.484375 C 7.585938 -21.515625 7.046875 -19.242188 7.046875 -16.671875 C 7.046875 -14.097656 7.59375 -11.828125 8.6875 -9.859375 C 9.789062 -7.890625 11.300781 -6.347656 13.21875 -5.234375 C 15.144531 -4.128906 17.34375 -3.578125 19.8125 -3.578125 C 22.070312 -3.578125 24.070312 -4.019531 25.8125 -4.90625 C 27.5625 -5.789062 28.984375 -7.019531 30.078125 -8.59375 C 31.179688 -10.164062 31.875 -12.003906 32.15625 -14.109375 L 18.578125 -14.109375 L 18.578125 -18.109375 L 36.6875 -18.109375 C 36.75 -14.453125 36.070312 -11.21875 34.65625 -8.40625 C 33.238281 -5.59375 31.253906 -3.382812 28.703125 -1.78125 C 26.148438 -0.175781 23.15625 0.625 19.71875 0.625 Z M 19.71875 0.625 "/></g></g></g></g></g></svg>